<?xml version="1.0" encoding="UTF-8"?>
<svg id="Layer_2" data-name="Layer 2" xmlns="http://www.w3.org/2000/svg" viewBox="0 0 1183.76 253.69">
  <defs>
    <style>
      .cls-1 {
        stroke-width: 0px;
      }
    </style>
  </defs>
  <path class="cls-1" d="m103.55,79.79H1.45C.65,79.79,0,79.14,0,78.34V1.45C0,.65.65,0,1.45,0h120.57c1,0,1.7.99,1.36,1.93l-5.53,15.52c-.21.58-.75.96-1.36.96H19.86c-.8,0-1.45.65-1.45,1.45v40.07c0,.8.65,1.45,1.45,1.45h83.73c10.71,0,20.25-6.74,23.85-16.82l5.5-15.45C139.16,11.65,155.68,0,174.2,0h99.84c.8,0,1.45.65,1.45,1.45v76.9c0,.8-.65,1.45-1.45,1.45h-94.95c-.8,0-1.45.65-1.45,1.45v171c0,.8-.66,1.45-1.46,1.45h-76.9c-.8,0-1.45-.65-1.45-1.45V99.65c0-.8.66-1.45,1.46-1.45h15.52c.8,0,1.45.65,1.45,1.45v134.17c0,.8.64,1.45,1.44,1.45h40.07c.8,0,1.45-.65,1.45-1.45V62.82c0-.8.66-1.45,1.46-1.45h94.95c.8,0,1.45-.65,1.45-1.45V19.86c0-.8-.65-1.45-1.45-1.45h-81.48c-10.71,0-20.26,6.74-23.85,16.83l-5.49,15.43c-6.21,17.46-22.74,29.12-41.27,29.12Z"/>
  <g>
    <path class="cls-1" d="m345.83,45.41h137.48v24.53h-55.66v144.57h-26.03V69.94h-55.79v-24.53Z"/>
    <path class="cls-1" d="m526.02,142.66c14.32,0,24.66,2.99,30.14,5.6v-6.48c0-14.94-12.08-26.15-30.63-26.15-14.82,0-27.15,8.47-34.24,16.56l-15.57-15.44c9.21-11.71,28.39-24.28,50.18-24.28,33.62,0,54.92,18.18,54.92,47.2v74.84h-24.16v-15.44c-7.35,11.21-21.17,17.93-37.23,17.93-25.9,0-46.2-13.08-46.2-36.49s21.42-37.86,52.8-37.86Zm-2.99,54.17c19.43,0,33.12-13.32,33.12-29.64-5.11-2.62-16.56-5.73-29.51-5.73-15.57,0-28.52,5.23-28.52,18.18,0,10.83,10.83,17.18,24.91,17.18Z"/>
    <path class="cls-1" d="m626.13,174.54c6.72,11.71,18.18,19.8,33.37,19.8,12.83,0,22.41-5.11,22.41-13.2,0-8.84-7.35-11.58-24.91-15.57-25.65-5.73-43.96-13.82-43.96-37.48,0-21.67,19.8-35.61,44.21-35.61,22.29,0,39.35,11.58,47.32,24.66l-16.56,14.2c-6.48-9.21-16.69-16.31-30.76-16.31-11.83,0-19.8,4.98-19.8,12.7,0,9.09,8.84,11.58,26.4,15.81,26.03,6.35,42.96,14.82,42.96,37.61s-21.92,35.86-47.32,35.86c-23.29,0-42.46-10.71-51.68-27.64l18.31-14.82Z"/>
    <path class="cls-1" d="m761.74,39.18v107.71l52.18-51.93h33.87l-51.43,50.06,53.42,69.49h-31.26l-40.1-52.18-16.69,16.69v35.49h-24.91V39.18h24.91Z"/>
    <path class="cls-1" d="m916.9,92.48c34.87,0,57.53,25.9,57.53,57.9,0,3.74-.25,7.6-1,11.46h-92.77c1.12,17.93,16.44,32,37.11,32,14.94,0,26.9-6.35,35.86-20.42l18.18,13.2c-11.08,19.92-32.87,30.38-54.04,30.38-36.11,0-62.64-26.65-62.64-62.14s25.53-62.39,61.76-62.39Zm32.5,50.93c-1.49-16.81-15.57-28.64-32.75-28.64-18.31,0-32.25,11.83-35.37,28.64h68.12Z"/>
    <path class="cls-1" d="m1055.12,92.48c20.3,0,33.75,7.47,42.59,18.8V39.18h24.66v175.33h-24.66v-16.31c-8.84,11.33-22.29,18.8-42.59,18.8-34,0-60.02-26.15-60.02-62.89s26.03-61.64,60.02-61.64Zm-35.37,61.64c0,22.04,15.32,40.72,38.35,40.72s39.47-18.68,39.47-40.72-16.56-39.47-39.47-39.47-38.35,17.43-38.35,39.47Z"/>
    <path class="cls-1" d="m1168.44,186.5c8.72,0,15.32,6.85,15.32,15.32s-6.6,15.19-15.32,15.19-15.19-6.72-15.19-15.19,6.48-15.32,15.19-15.32Z"/>
  </g>
</svg>